<svg width="73" height="26" viewBox="0 0 73 26" fill="none" xmlns="http://www.w3.org/2000/svg">
<path d="M73 19.5C73 23.0899 70.0899 26 66.5 26C62.9101 26 60 23.0899 60 19.5C60 15.9101 62.9101 13 66.5 13C70.0899 13 73 15.9101 73 19.5Z" fill="#7BFF83" fill-opacity="0.9"/>
<path d="M36 16.5C36 20.0899 33.0899 23 29.5 23C25.9101 23 23 20.0899 23 16.5C23 12.9101 25.9101 10 29.5 10C33.0899 10 36 12.9101 36 16.5Z" fill="#FF6060" fill-opacity="0.9"/>
<path d="M13 6.5C13 10.0899 10.0899 13 6.5 13C2.91015 13 0 10.0899 0 6.5C0 2.91015 2.91015 0 6.5 0C10.0899 0 13 2.91015 13 6.5Z" fill="#FFE550" fill-opacity="0.9"/>
<path d="M4.507 20.31C4.369 20.678 4.15433 20.908 3.863 21C3.57167 21.0767 3.28033 21.0613 2.989 20.954C2.69767 20.8313 2.47533 20.6397 2.322 20.379C2.184 20.103 2.19167 19.7887 2.345 19.436C2.65167 18.6847 3.058 17.5423 3.564 16.009C4.05467 14.4757 4.40733 13.4407 4.622 12.904C4.72933 12.5973 5.16633 11.5087 5.933 9.638C6.65367 7.798 7.21333 6.303 7.612 5.153C7.71933 4.84633 7.911 4.624 8.187 4.486C8.47833 4.33267 8.77733 4.30967 9.084 4.417C9.222 4.463 9.34467 4.532 9.452 4.624C9.75867 4.73133 9.97333 4.93833 10.096 5.245L15.823 19.39C15.961 19.758 15.961 20.08 15.823 20.356C15.685 20.6167 15.4703 20.8083 15.179 20.931C14.8877 21.0383 14.5963 21.0537 14.305 20.977C14.029 20.885 13.8143 20.6627 13.661 20.31L11.936 15.848C11.3073 15.8787 10.9547 15.894 10.878 15.894C8.808 15.9707 7.18267 16.009 6.002 16.009C5.312 18.033 4.81367 19.4667 4.507 20.31ZM6.853 13.663C8.141 13.6477 9.521 13.617 10.993 13.571L8.9 8.511L6.853 13.663Z" fill="black"/>
<path d="M17.5785 19.896C17.5479 18.746 17.5555 16.9827 17.6015 14.606C17.6322 12.2293 17.6475 10.673 17.6475 9.937C17.6475 9.55367 17.7625 9.27 17.9925 9.086C18.2225 8.88667 18.4909 8.787 18.7975 8.787C19.1042 8.787 19.3725 8.88667 19.6025 9.086C19.8325 9.27 19.9475 9.55367 19.9475 9.937C19.9475 10.673 19.9322 12.2217 19.9015 14.583C19.8555 16.9443 19.8479 18.7 19.8785 19.85C19.8785 20.218 19.7635 20.5017 19.5335 20.701C19.3035 20.9003 19.0352 21 18.7285 21C18.4219 21.0153 18.1535 20.931 17.9235 20.747C17.6935 20.563 17.5785 20.2793 17.5785 19.896ZM19.7175 4.808C20.0395 5.13 20.1775 5.46733 20.1315 5.82C20.1009 6.17267 19.9552 6.47933 19.6945 6.74C19.4492 6.98533 19.1502 7.131 18.7975 7.177C18.4449 7.20767 18.1075 7.062 17.7855 6.74C17.4635 6.418 17.3255 6.08067 17.3715 5.728C17.4175 5.37533 17.5709 5.06867 17.8315 4.808C18.0922 4.54733 18.3989 4.40167 18.7515 4.371C19.1042 4.325 19.4262 4.47067 19.7175 4.808Z" fill="black"/>
<path d="M29.3402 19.85C29.3402 20.2333 29.2252 20.517 28.9952 20.701C28.7652 20.885 28.4968 20.977 28.1902 20.977C27.8835 20.9617 27.6152 20.8543 27.3852 20.655C27.1552 20.4557 27.0402 20.172 27.0402 19.804C27.0555 19.2673 27.0478 17.0977 27.0172 13.295C27.0018 10.5197 27.0478 8.373 27.1552 6.855C25.4838 6.83967 24.0732 6.855 22.9232 6.901C22.5398 6.91633 22.2485 6.81667 22.0492 6.602C21.8498 6.372 21.7425 6.11133 21.7272 5.82C21.7272 5.51333 21.8192 5.23733 22.0032 4.992C22.1872 4.74667 22.4632 4.61633 22.8312 4.601C24.1498 4.555 25.9822 4.53967 28.3282 4.555C30.6742 4.57033 32.5065 4.57033 33.8252 4.555C34.1932 4.555 34.4768 4.67 34.6762 4.9C34.8755 5.13 34.9752 5.39833 34.9752 5.705C34.9905 6.01167 34.9062 6.28 34.7222 6.51C34.5382 6.74 34.2545 6.855 33.8712 6.855C32.7825 6.87033 31.3105 6.878 29.4552 6.878C29.3478 8.35 29.3018 10.4813 29.3172 13.272C29.3478 17.09 29.3555 19.2827 29.3402 19.85Z" fill="black"/>
<path d="M40.0149 21.115C38.8802 21.0383 37.8912 20.8083 37.0479 20.425C36.2045 20.0417 35.5605 19.5587 35.1159 18.976C34.6712 18.3933 34.3492 17.8567 34.1499 17.366C33.9505 16.8753 33.8279 16.3923 33.7819 15.917C33.7359 15.4263 33.7589 14.7977 33.8509 14.031C33.9735 13.3257 34.2189 12.651 34.5869 12.007C34.9702 11.363 35.4532 10.8033 36.0359 10.328C36.6339 9.83733 37.3162 9.477 38.0829 9.247C38.8649 9.00167 39.7005 8.93267 40.5899 9.04C41.4792 9.14733 42.2382 9.39267 42.8669 9.776C43.4955 10.144 44.0322 10.6193 44.4769 11.202C44.8602 11.6927 45.0979 12.0607 45.1899 12.306C45.2665 12.5513 45.3432 12.7813 45.4199 12.996C45.4812 13.226 45.5502 13.4867 45.6269 13.778C45.7189 14.0693 45.7725 14.3377 45.7879 14.583C45.8185 15.2117 45.5809 15.6717 45.0749 15.963C44.8755 16.0397 44.6609 16.078 44.4309 16.078L40.4979 16.147C37.7379 16.1623 36.3579 16.193 36.3579 16.239H36.2889C36.7029 17.8337 37.9909 18.7077 40.1529 18.861C40.7509 18.8917 41.2492 18.861 41.6479 18.769C42.0925 18.6463 42.4145 18.539 42.6139 18.447C42.8132 18.3397 43.0585 18.2017 43.3499 18.033C43.7025 17.9103 44.0015 17.918 44.2469 18.056C44.5075 18.1787 44.6839 18.378 44.7759 18.654C44.8832 18.93 44.8909 19.2137 44.7989 19.505C44.7069 19.7963 44.4999 20.034 44.1779 20.218C43.9325 20.356 43.6795 20.471 43.4189 20.563C43.0509 20.7163 42.5985 20.8543 42.0619 20.977C41.5252 21.0843 40.8429 21.1303 40.0149 21.115ZM36.3349 13.985C37.2242 13.939 39.5319 13.893 43.2579 13.847C43.1199 13.387 42.8975 12.95 42.5909 12.536C41.9775 11.8307 41.2185 11.4243 40.3139 11.317C39.3632 11.1943 38.5275 11.4013 37.8069 11.938C37.0862 12.4593 36.5955 13.1417 36.3349 13.985Z" fill="black"/>
<path d="M53.3727 21.046C52.4987 21.0613 51.64 20.908 50.7967 20.586C49.9687 20.264 49.2863 19.7963 48.7497 19.183C48.1977 18.539 47.8373 17.7647 47.6687 16.86C47.4847 15.9707 47.4693 15.1197 47.6227 14.307C47.7913 13.4943 48.0673 12.7123 48.4507 11.961C48.8953 11.1483 49.4473 10.466 50.1067 9.914C50.766 9.362 51.5097 9.00933 52.3377 8.856C53.1657 8.70267 54.055 8.81767 55.0057 9.201C55.4043 9.385 55.8107 9.67633 56.2247 10.075L56.9607 10.811C57.252 11.0563 57.39 11.3323 57.3747 11.639C57.3747 11.9303 57.275 12.1987 57.0757 12.444C56.8763 12.674 56.631 12.8197 56.3397 12.881C56.0483 12.927 55.7647 12.8197 55.4887 12.559C55.3507 12.4517 55.1897 12.306 55.0057 12.122L54.6147 11.731C54.4 11.5163 54.2237 11.3783 54.0857 11.317C53.3957 11.0103 52.7363 11.018 52.1077 11.34C51.479 11.6467 50.9423 12.214 50.4977 13.042C50.0377 13.9007 49.8077 14.7593 49.8077 15.618C49.823 16.4767 50.053 17.159 50.4977 17.665C50.7737 17.987 51.1723 18.2477 51.6937 18.447C52.215 18.6463 52.767 18.746 53.3497 18.746C54.5303 18.7153 55.2893 18.2937 55.6267 17.481L55.6037 17.366V16.699C55.619 16.3157 55.7493 16.0397 55.9947 15.871C56.24 15.687 56.5083 15.6103 56.7997 15.641C57.1063 15.6563 57.367 15.7637 57.5817 15.963C57.8117 16.1623 57.919 16.4537 57.9037 16.837V17.343C57.919 17.7263 57.8653 18.0637 57.7427 18.355C57.39 19.2443 56.8073 19.9113 55.9947 20.356C55.1973 20.8007 54.3233 21.0307 53.3727 21.046Z" fill="black"/>
<path d="M69.9839 19.896C69.9685 20.2793 69.8382 20.563 69.5929 20.747C69.3629 20.9157 69.0945 21 68.7879 21C68.4965 20.9847 68.2359 20.885 68.0059 20.701C67.7912 20.5017 67.6839 20.218 67.6839 19.85C67.6839 19.8347 67.7299 19.114 67.8219 17.688C67.9139 16.124 67.9292 14.9357 67.8679 14.123C67.7299 12.2063 67.0245 11.202 65.7519 11.11C65.0772 11.064 64.5175 11.1713 64.0729 11.432C63.6435 11.6773 63.2219 12.1143 62.8079 12.743C62.7772 12.789 62.7159 12.8963 62.6239 13.065C62.7312 16.377 62.7849 18.6463 62.7849 19.873C62.7849 20.2563 62.6699 20.5477 62.4399 20.747C62.2099 20.931 61.9415 21.023 61.6349 21.023C61.3282 21.023 61.0599 20.931 60.8299 20.747C60.5999 20.5477 60.4849 20.2563 60.4849 19.873C60.4849 19.1677 60.4235 16.7833 60.3009 12.72C60.2089 9.66867 60.1935 7.246 60.2549 5.452C60.2702 5.084 60.4005 4.808 60.6459 4.624C60.8912 4.44 61.1595 4.35567 61.4509 4.371C61.7575 4.371 62.0182 4.47067 62.2329 4.67C62.4629 4.86933 62.5702 5.16067 62.5549 5.544C62.5395 5.958 62.5319 7.56033 62.5319 10.351C63.5132 9.21633 64.6632 8.70267 65.9819 8.81C68.5272 9.02467 69.9225 10.7343 70.1679 13.939C70.2139 14.8283 70.2292 15.6027 70.2139 16.262C70.1832 16.952 70.1372 17.642 70.0759 18.332C70.0145 19.022 69.9839 19.5433 69.9839 19.896Z" fill="black"/>
</svg>
